<svg xmlns="http://www.w3.org/2000/svg" xml:space="preserve" viewBox="0 0 512 512"><linearGradient id="a" x1="0" x2="512" y1="256" y2="256"><stop offset="0" /><stop offset="1"/></linearGradient><circle cx="256" cy="256" r="256" fill="#47292e"/><linearGradient id="b" x1="42.667" x2="469.333" y1="256.001" y2="256.001"><stop offset="0"/><stop offset="1"/></linearGradient><path fill="#723D46" d="M256 469.334C138.369 469.334 42.667 373.63 42.667 256c0-117.632 95.702-213.334 213.333-213.334 117.636 0 213.333 95.702 213.333 213.334 0 117.63-95.697 213.333-213.333 213.333z"/><path d="M144 384v-48.26h240V384zM144 288.13v-48.26h240v48.26zM144 192.26V144h240v48.26z" opacity="0"/><g fill = '#FFE1A8'><path d="M136 376v-48.26h240V376zM136 280.13v-48.26h240v48.26zM136 184.26V136h240v48.26z"/></g></svg>